name D:\Gebruiker\Documents\~school~\WTK\thesis\model\3dpredictsim_Lars\Results\Test_Lars\Test1_alphaCst_no.mot
datacolumns 126
datarows 4
range 1.07572019 1.10799179
endheader
time	pelvis_tilt	pelvis_list	pelvis_rotation	pelvis_tx	pelvis_ty	pelvis_tz	hip_flexion_l	hip_adduction_l	hip_rotation_l	hip_flexion_r	hip_adduction_r	hip_rotation_r	knee_angle_l	knee_angle_r	ankle_angle_l	ankle_angle_r	subtalar_angle_l	subtalar_angle_r	mtp_angle_l	mtp_angle_r	lumbar_extension	lumbar_bending	lumbar_rotation	arm_flex_l	arm_add_l	arm_rot_l	arm_flex_r	arm_add_r	arm_rot_r	elbow_flex_l	elbow_flex_r	pro_sup_l	pro_sup_r	glut_med1_l/activation	glut_med2_l/activation	glut_med3_l/activation	glut_min1_l/activation	glut_min2_l/activation	glut_min3_l/activation	semimem_l/activation	semiten_l/activation	bifemlh_l/activation	bifemsh_l/activation	sar_l/activation	add_long_l/activation	add_brev_l/activation	add_mag1_l/activation	add_mag2_l/activation	add_mag3_l/activation	tfl_l/activation	pect_l/activation	grac_l/activation	glut_max1_l/activation	glut_max2_l/activation	glut_max3_l/activation	iliacus_l/activation	psoas_l/activation	quad_fem_l/activation	gem_l/activation	peri_l/activation	rect_fem_l/activation	vas_med_l/activation	vas_int_l/activation	vas_lat_l/activation	med_gas_l/activation	lat_gas_l/activation	soleus_l/activation	tib_post_l/activation	flex_dig_l/activation	flex_hal_l/activation	tib_ant_l/activation	per_brev_l/activation	per_long_l/activation	per_tert_l/activation	ext_dig_l/activation	ext_hal_l/activation	ercspn_l/activation	intobl_l/activation	extobl_l/activation	glut_med1_r/activation	glut_med2_r/activation	glut_med3_r/activation	glut_min1_r/activation	glut_min2_r/activation	glut_min3_r/activation	semimem_r/activation	semiten_r/activation	bifemlh_r/activation	bifemsh_r/activation	sar_r/activation	add_long_r/activation	add_brev_r/activation	add_mag1_r/activation	add_mag2_r/activation	add_mag3_r/activation	tfl_r/activation	pect_r/activation	grac_r/activation	glut_max1_r/activation	glut_max2_r/activation	glut_max3_r/activation	iliacus_r/activation	psoas_r/activation	quad_fem_r/activation	gem_r/activation	peri_r/activation	rect_fem_r/activation	vas_med_r/activation	vas_int_r/activation	vas_lat_r/activation	med_gas_r/activation	lat_gas_r/activation	soleus_r/activation	tib_post_r/activation	flex_dig_r/activation	flex_hal_r/activation	tib_ant_r/activation	per_brev_r/activation	per_long_r/activation	per_tert_r/activation	ext_dig_r/activation	ext_hal_r/activation	ercspn_r/activation	intobl_r/activation	extobl_r/activation	
          1.07572019	         -2.92966732	         -2.17643192	          5.13906278	          1.34465024	          0.85860167	         -0.00203373	        -18.14648333	         -1.65978533	          6.98718990	         31.61962301	          3.09679105	         -1.68112651	         -5.93608212	        -14.54458707	          1.60525760	          7.45065133	          9.73705946	         -3.15890664	         21.47596090	         -0.13228836	         -2.06369068	          0.48632584	         -1.91534315	          8.42269553	        -13.45225866	         17.40318247	         -8.82232780	        -13.53588980	          7.24009448	         34.92075741	         13.76952035	         86.51662706	         86.51662706	          0.33092849	          0.11404257	          0.08200261	          0.35248664	          0.22868200	          0.11404360	          0.05000094	          0.05000010	          0.05000007	          0.07941203	          0.11406910	          0.05000010	          0.05000008	          0.05000009	          0.05000023	          0.05000017	          0.33506933	          0.05000042	          0.05000034	          0.05004396	          0.05000249	          0.05000073	          0.39096630	          0.63665731	          0.05000022	          0.05000058	          0.06117248	          0.20937439	          0.05000062	          0.05000039	          0.05000043	          0.33555160	          0.44968352	          0.31763747	          0.27492578	          0.28739907	          0.39047804	          0.05000002	          0.06280796	          0.16435442	          0.05000010	          0.05000003	          0.05000011	          0.05000000	          0.05000000	          0.05000001	          0.11376676	          0.05000007	          0.05896416	          0.05000005	          0.05000007	          0.05000023	          0.05896434	          0.05896440	          0.19648658	          0.05000033	          0.05000273	          0.09679946	          0.15190122	          0.21812267	          0.15743127	          0.10975141	          0.05896425	          0.05020165	          0.05899352	          0.05895378	          0.06953557	          0.10878354	          0.05000008	          0.05000011	          0.25837853	          0.05106354	          0.05000024	          0.05000024	          0.09252120	          0.09748398	          0.08094886	          0.05896430	          0.05612368	          0.05896432	          0.05000003	          0.05000052	          0.05000209	          0.49530045	          0.38641198	          0.22163290	          0.27416604	          0.54901619	          0.28699633	          0.07720272	          0.11043846	          0.12087778	
          1.08647739	         -2.92521889	         -2.26813006	          5.43803389	          1.36061672	          0.85753654	         -0.00184406	        -18.02903435	         -1.95697871	          6.76623183	         31.04229784	          3.43536828	         -1.47589598	         -7.84339917	        -14.40178778	          0.86909107	          6.89006865	         10.67541127	         -3.63778604	         22.50473147	         -0.11419075	         -1.88524064	          0.70906434	         -1.98547591	          8.31547927	        -13.45959905	         17.62715868	         -9.84446920	        -13.53008501	          7.14659538	         36.06455233	         13.59306900	         86.51662706	         86.51662706	          0.28061755	          0.09670472	          0.06953579	          0.29889824	          0.19391555	          0.09670559	          0.05000387	          0.05000033	          0.05000044	          0.06733905	          0.09672729	          0.11558993	          0.05006727	          0.05040489	          0.05003120	          0.06953307	          0.28412889	          0.06112328	          0.05000116	          0.05000092	          0.05000083	          0.05000100	          0.33152781	          0.55636872	          0.05000021	          0.05005976	          0.05896436	          0.17754330	          0.05000972	          0.18145773	          0.15295946	          0.28453776	          0.38131826	          0.27115097	          0.25172518	          0.24370690	          0.33111463	          0.05000001	          0.05391360	          0.17309139	          0.05000008	          0.05000002	          0.05000007	          0.05000000	          0.06953585	          0.05000001	          0.09647089	          0.05896427	          0.05000006	          0.05896478	          0.05896439	          0.05000057	          0.05000004	          0.05000022	          0.16750097	          0.05000026	          0.05000045	          0.08208384	          0.12880789	          0.21937509	          0.17775123	          0.10548383	          0.05000016	          0.05000120	          0.05002497	          0.05000205	          0.05896419	          0.10732848	          0.05184655	          0.05108093	          0.50750996	          0.13850072	          0.08051558	          0.06953596	          0.18931918	          0.19365221	          0.16669011	          0.05000000	          0.05000000	          0.05000000	          0.05000007	          0.05896448	          0.05000397	          0.54931435	          0.33536330	          0.22906884	          0.47428584	          0.59121885	          0.25836445	          0.06546562	          0.09364853	          0.10250076	
          1.09723459	         -2.91683016	         -2.35462272	          5.71443432	          1.37688775	          0.85649062	         -0.00166292	        -17.83670286	         -2.24531332	          6.53510617	         30.34014992	          3.72541681	         -1.21058222	         -9.88541481	        -14.80372822	         -0.02326056	          6.26138526	         11.57572811	         -4.13680993	         23.38481095	         -0.15484824	         -1.68393969	          0.93335959	         -2.04633871	          8.11913807	        -13.46710419	         17.78080023	        -10.88866546	        -13.52478885	          7.07883820	         37.17482556	         13.47691279	         86.51662706	         86.51662706	          0.33997381	          0.08200273	          0.05896430	          0.25345693	          0.16443465	          0.08200348	          0.05000110	          0.05000035	          0.05000034	          0.05710153	          0.08202196	          0.14171612	          0.09790130	          0.05896485	          0.05896437	          0.05896422	          0.24093304	          0.08297068	          0.05013488	          0.05001606	          0.05001453	          0.05639796	          0.28112579	          0.53252215	          0.05639210	          0.05000060	          0.05000009	          0.15055145	          0.10183952	          0.15387105	          0.12970549	          0.24127955	          0.32334654	          0.22992795	          0.21345551	          0.20665634	          0.28077545	          0.05000000	          0.05000020	          0.18834317	          0.05000004	          0.05000001	          0.05000006	          0.05609929	          0.05896433	          0.05000218	          0.26980807	          0.05000003	          0.30299896	          0.05000041	          0.05000011	          0.21485550	          0.07484153	          0.05000009	          0.15425561	          0.05000003	          0.05000024	          0.08200405	          0.22820223	          0.18602425	          0.15072875	          0.13119058	          0.05000030	          0.05902051	          0.11298488	          0.05000006	          0.05000007	          0.11870443	          0.05866747	          0.05000072	          0.43035337	          0.11744454	          0.17025221	          0.05896444	          0.16053707	          0.16421137	          0.14134829	          0.06579398	          0.06857575	          0.05928406	          0.05896434	          0.05000020	          0.05000025	          0.46580221	          0.34537407	          0.19424360	          0.40218035	          0.58111036	          0.21908538	          0.05551291	          0.09756146	          0.08691760	
          1.10799179	         -2.90612424	         -2.43996153	          5.96081095	          1.39330839	          0.85546778	         -0.00147205	        -17.54757956	         -2.52443712	          6.29953172	         29.51172773	          3.98212382	         -0.93417066	        -12.08001588	        -15.25284027	         -1.06363163	          5.81724117	         12.41850073	         -4.62960309	         24.07123570	         -0.16367298	         -1.47501194	          1.16229364	         -2.09803348	          7.85613907	        -13.47714845	         17.87473694	        -11.91374558	        -13.52148131	          7.05603094	         38.23950304	         13.39311490	         86.51662706	         86.51662706	          0.31343753	          0.06953589	          0.05000005	          0.36301581	          0.13943573	          0.06953653	          0.05214824	          0.05000008	          0.05000007	          0.05000011	          0.06955235	          0.12628591	          0.08301747	          0.05000057	          0.05000052	          0.05000024	          0.26197280	          0.07035811	          0.05000026	          0.05000067	          0.05000041	          0.05000026	          0.23838637	          0.49560911	          0.05000004	          0.05000032	          0.05000020	          0.13448901	          0.08635713	          0.13047865	          0.12295968	          0.20459788	          0.27418824	          0.19497206	          0.18100394	          0.17523849	          0.23808927	          0.05000002	          0.09868081	          0.18872223	          0.05000009	          0.05000013	          0.05000011	          0.07464307	          0.05000000	          0.05000001	          0.31529287	          0.28894929	          0.37498201	          0.20015141	          0.21105455	          0.18219139	          0.06346345	          0.09969855	          0.13080419	          0.08215214	          0.05896413	          0.06953701	          0.19350871	          0.15774309	          0.12781360	          0.15442653	          0.05000018	          0.05004779	          0.09580830	          0.22500300	          0.17032917	          0.12966984	          0.05000004	          0.05000005	          0.36492689	          0.09958961	          0.14436895	          0.05000010	          0.13613070	          0.13924642	          0.11985918	          0.05579135	          0.05815021	          0.05027112	          0.05000001	          0.05896439	          0.05611734	          0.59710137	          0.43863793	          0.22493513	          0.65185283	          0.65293446	          0.34859380	          0.07949154	          0.08703442	          0.07370354	
